# xmcd
#
# Track frame offsets: 
#        150
#        12882
#        27442
#        41730
#        55882
#        70645
#        84280
#        98870
#        114627
#        128752
#        143227
#        157325
#        175097
#        189500
#        203082
#        217892
#        230845
#        244772
#        257380
#        272460
#
# Disc length: 3830 seconds
#
# Revision: 1
# Processed by: cddbd v1.5.1PL0 Copyright (c) Steve Scherf et al.
# Submitted via: ExactAudioCopy v0.95a5
#
DISCID=130ef414
DTITLE=Charley Pride - Country Legend: Nickels and Dimes and Love
DYEAR=2003
DGENRE=Country
TTITLE0=I'm Gonna Love Her on the Radio
TTITLE1=Shouldn't It Be Easier Than This
TTITLE2=I Made Love to You in My Mind
TTITLE3=She's Soft to the Touch (But Hard to Hold)
TTITLE4=White Houses
TTITLE5=Amy's Eyes
TTITLE6=Nickles and Dimes and Love
TTITLE7=She's Taking It Easy
TTITLE8=On the Other Hand
TTITLE9=Look in the Mirror
TTITLE10=Have I Got Some Blues for You
TTITLE11=The More I Do
TTITLE12=You Hold My World Together
TTITLE13=Your Used to Be
TTITLE14=Leavin' Never Gets Me Anywhere
TTITLE15=I Had Her Leavin' Comin'
TTITLE16=I Can't Stop the Mississippi
TTITLE17=Where Was I
TTITLE18=I Wrote the Songs That Broke Her Heart
TTITLE19=There Ain't No Me (If There Ain't No You)
EXTD=
EXTT0=
EXTT1=
EXTT2=
EXTT3=
EXTT4=
EXTT5=
EXTT6=
EXTT7=
EXTT8=
EXTT9=
EXTT10=
EXTT11=
EXTT12=
EXTT13=
EXTT14=
EXTT15=
EXTT16=
EXTT17=
EXTT18=
EXTT19=
PLAYORDER=
